# xmcd
#
# Track frame offsets:
#	150
#	27852
#	57940
#	77125
#	99375
#	117737
#	139460
#	155780
#	169697
#	183075
#	194957
#	208797
#	219207
#	231552
#	242072
#	254545
#
# Disc length: 3566 seconds
#
# Revision: 4
# Processed by: cddbd v1.5.1PL2 Copyright (c) Steve Scherf et al.
# Submitted via: audiograbber 1.83.01
#
DISCID=f40dec10
DTITLE=Willie Dixon - Poet of the Blues
DYEAR=1998
DGENRE=Blues
TTITLE0=Back Door Man
TTITLE1=I Can't Quit You Baby
TTITLE2=The Seventh Son
TTITLE3=Spoonful
TTITLE4=I Ain't Superstitious
TTITLE5=I'm Your Hoochie Coochie Man
TTITLE6=Little Red Rooster
TTITLE7=Big 3 Stomp
TTITLE8=I Ain't Gonna Be Your Monkey Man
TTITLE9=It's All Over Now
TTITLE10=If The Sea Was Whiskey
TTITLE11=O.C. Bounce
TTITLE12=Money Tree Blues
TTITLE13=Cool Kind Woman Blues
TTITLE14=Juice-Head Bartender
TTITLE15=Signifying Monkey
EXTD=
EXTT0=
EXTT1=
EXTT2=
EXTT3=
EXTT4=
EXTT5=
EXTT6=
EXTT7=
EXTT8=
EXTT9=
EXTT10=
EXTT11=
EXTT12=
EXTT13=
EXTT14=
EXTT15=
PLAYORDER=
